<svg width="32" height="33" viewBox="0 0 32 33" fill="none" xmlns="http://www.w3.org/2000/svg">
    <rect y="0.0949707" width="32" height="32" rx="4" fill="#F8F413"/>
    <path d="M16.0722 14.9641C16.539 15.5904 17.4084 16.4871 19.0209 17.7183C18.8439 9.90502 16.8463 4.28961 16.2005 2.72772C16.1266 2.55072 15.8757 2.55072 15.8018 2.72772C15.158 4.28961 13.1584 9.91279 12.9814 17.7183C14.5939 16.4871 15.4633 15.5904 15.9302 14.9641C15.9652 14.9155 16.0371 14.9155 16.0722 14.9641Z" fill="#0D1B32"/>
    <path d="M12.9815 17.7203C12.8142 17.8468 12.6411 17.9771 12.4582 18.1132C9.39671 20.3617 9.40838 23.927 9.4181 25.24C9.4181 25.3392 9.4998 25.4209 9.60094 25.4209H13.244C13.0612 24.3024 12.9601 21.663 12.9601 19.5584C12.9601 18.9321 12.9679 18.3194 12.9815 17.7203Z" fill="#0D1B32"/>
    <path d="M19.5422 18.1113C19.3593 17.9771 19.1862 17.8468 19.0189 17.7203C19.0325 18.3194 19.0403 18.9321 19.0403 19.5584C19.0403 21.663 18.9392 24.3024 18.7563 25.4209H22.3995C22.5006 25.4209 22.5803 25.3411 22.5823 25.24C22.592 23.927 22.6037 20.3637 19.5441 18.1113H19.5422Z" fill="#0D1B32"/>
    <path d="M16.2065 29.4451C16.6655 28.0622 17.5408 26.792 18.7584 25.4208H13.2422C14.4598 26.792 15.3351 28.0622 15.7941 29.4451C15.8233 29.5346 15.905 29.5949 16.0003 29.5949C16.0937 29.5949 16.1753 29.5346 16.2065 29.4451Z" fill="#0D1B32"/>
</svg>
